<svg width="743" height="197" viewBox="0 0 743 197" fill="none" xmlns="http://www.w3.org/2000/svg">
<rect x="23" y="25" width="349" height="147" fill="black"/>
<path d="M326.977 74.29C326.977 79.6579 326.977 87.682 326.977 98.3623C326.977 99.4137 326.977 100.936 326.977 102.928C326.977 108.296 326.977 116.32 326.977 127C325.98 127 324.486 127 322.494 127C322.494 121.632 322.494 113.608 322.494 102.928C312.755 102.928 298.201 102.928 278.832 102.928C278.832 108.296 278.832 116.32 278.832 127C277.836 127 276.342 127 274.35 127C274.35 115.268 274.35 97.6982 274.35 74.29C275.346 74.29 276.84 74.29 278.832 74.29C278.832 79.6579 278.832 87.682 278.832 98.3623C288.516 98.3623 303.07 98.3623 322.494 98.3623C322.494 93.0498 322.494 85.0257 322.494 74.29C323.49 74.29 324.984 74.29 326.977 74.29Z" fill="white"/>
<path d="M218.831 75.7842C219.55 75.5628 220.27 75.3415 220.989 75.1201C221.653 74.9541 222.373 74.8158 223.147 74.7051C223.922 74.5391 224.642 74.4284 225.306 74.373C226.025 74.3177 226.772 74.29 227.547 74.29C233.357 74.29 242.046 74.29 253.611 74.29C253.611 75.2861 253.611 76.8079 253.611 78.8555C249.24 78.8555 244.896 78.8555 240.579 78.8555C236.263 78.8555 231.919 78.8555 227.547 78.8555C226.163 78.8555 224.863 78.9661 223.646 79.1875C222.428 79.4089 221.155 79.7686 219.827 80.2666C218.554 80.7646 217.365 81.318 216.258 81.9268C215.206 82.5908 214.155 83.3932 213.104 84.334C212.993 84.5 212.854 84.6383 212.688 84.749C212.578 84.8597 212.439 84.998 212.273 85.1641C212.107 85.3301 211.969 85.4684 211.858 85.5791C211.692 85.7451 211.554 85.9111 211.443 86.0771C209.562 88.1247 208.178 90.3659 207.293 92.8008C206.352 95.1803 205.882 97.7812 205.882 100.604C205.882 103.37 206.352 105.971 207.293 108.406C208.178 110.786 209.562 113.027 211.443 115.13C211.554 115.296 211.692 115.434 211.858 115.545C211.969 115.711 212.107 115.849 212.273 115.96C212.439 116.126 212.578 116.264 212.688 116.375C212.854 116.541 212.993 116.679 213.104 116.79C214.155 117.731 215.206 118.533 216.258 119.197C217.365 119.861 218.554 120.442 219.827 120.94C221.155 121.438 222.428 121.798 223.646 122.02C224.863 122.241 226.163 122.352 227.547 122.352C233.357 122.352 242.046 122.352 253.611 122.352C253.611 123.348 253.611 124.842 253.611 126.834C249.24 126.834 244.896 126.834 240.579 126.834C236.263 126.834 231.919 126.834 227.547 126.834C225.887 126.834 224.31 126.696 222.815 126.419C221.321 126.142 219.799 125.727 218.25 125.174C216.645 124.565 215.206 123.846 213.934 123.016C212.661 122.241 211.388 121.3 210.115 120.193C209.949 120.027 209.783 119.861 209.617 119.695C209.451 119.529 209.257 119.363 209.036 119.197C208.87 118.976 208.704 118.782 208.538 118.616C208.372 118.45 208.206 118.284 208.04 118.118C205.826 115.573 204.166 112.861 203.06 109.983C201.953 107.106 201.399 103.979 201.399 100.604C201.399 97.2279 201.953 94.1012 203.06 91.2236C204.166 88.2907 205.826 85.5791 208.04 83.0889C208.206 82.8675 208.372 82.6738 208.538 82.5078C208.704 82.3418 208.87 82.1758 209.036 82.0098C209.202 81.8438 209.396 81.6777 209.617 81.5117C209.783 81.3457 209.949 81.1797 210.115 81.0137C210.779 80.4049 211.443 79.8516 212.107 79.3535C212.716 78.9108 213.408 78.4404 214.183 77.9424C214.957 77.4997 215.732 77.1123 216.507 76.7803C217.226 76.4482 218.001 76.1162 218.831 75.7842Z" fill="white"/>
<path d="M128.117 98.3623C128.117 93.0498 128.117 85.0257 128.117 74.29C139.848 74.29 157.418 74.29 180.827 74.29C180.827 75.3415 180.827 76.8633 180.827 78.8555C170.091 78.8555 154.043 78.8555 132.682 78.8555C132.682 83.1719 132.682 89.6742 132.682 98.3623C139.489 98.3623 149.671 98.3623 163.229 98.3623C163.229 99.4137 163.229 100.936 163.229 102.928C156.422 102.928 146.24 102.928 132.682 102.928C132.682 107.244 132.682 113.746 132.682 122.435C143.362 122.435 159.411 122.435 180.827 122.435C180.827 123.486 180.827 125.008 180.827 127C169.095 127 151.525 127 128.117 127C128.117 121.632 128.117 113.608 128.117 102.928C128.117 101.932 128.117 100.41 128.117 98.3623Z" fill="white"/>
<path d="M55 78.8555C55 77.8594 55 76.3652 55 74.373C66.6764 74.373 84.1911 74.373 107.544 74.373C107.544 75.3691 107.544 76.8633 107.544 78.8555C102.231 78.8555 94.235 78.8555 83.5547 78.8555C83.5547 89.5358 83.5547 105.556 83.5547 126.917C82.5586 126.917 81.0368 126.917 78.9893 126.917C78.9893 116.237 78.9893 100.216 78.9893 78.8555C73.6768 78.8555 65.6803 78.8555 55 78.8555Z" fill="white"/>
<path d="M633.825 94.3779C634.433 95.042 635.125 95.54 635.9 95.8721C636.675 96.1488 637.532 96.2871 638.473 96.2871C642.125 96.2871 645.778 96.2871 649.43 96.2871C653.083 96.2871 656.735 96.2871 660.387 96.2871C661.439 96.2871 662.407 96.3978 663.292 96.6191C664.233 96.7852 665.202 97.0618 666.198 97.4492C667.139 97.8366 667.996 98.307 668.771 98.8604C669.601 99.3584 670.376 99.9671 671.095 100.687C671.427 101.019 671.732 101.351 672.008 101.683C672.285 102.015 672.562 102.374 672.838 102.762C673.115 103.149 673.364 103.536 673.585 103.924C673.807 104.256 674.028 104.643 674.25 105.086C674.416 105.473 674.554 105.833 674.665 106.165C674.831 106.497 674.969 106.857 675.08 107.244C675.19 107.632 675.273 107.991 675.329 108.323C675.439 108.711 675.522 109.098 675.578 109.485C675.578 109.651 675.578 109.817 675.578 109.983C675.633 110.149 675.661 110.343 675.661 110.564C675.661 110.73 675.661 110.924 675.661 111.146C675.716 111.312 675.744 111.478 675.744 111.644C675.744 113.746 675.356 115.711 674.582 117.537C673.862 119.363 672.728 121.023 671.178 122.518C669.684 124.012 668.052 125.146 666.281 125.921C664.455 126.64 662.49 127 660.387 127C654.134 127 647.908 127 641.71 127C635.513 127 629.315 127 623.117 127C623.117 125.063 623.117 122.13 623.117 118.201C631.362 118.201 643.786 118.201 660.387 118.201C661.273 118.201 662.103 118.063 662.877 117.786C663.652 117.454 664.372 116.956 665.036 116.292C665.644 115.683 666.115 114.992 666.447 114.217C666.779 113.442 666.945 112.584 666.945 111.644C666.945 111.478 666.945 111.284 666.945 111.062C666.889 110.896 666.862 110.73 666.862 110.564C666.806 110.343 666.751 110.149 666.696 109.983C666.696 109.817 666.64 109.651 666.53 109.485C666.308 108.821 666.004 108.213 665.617 107.659C665.229 107.161 664.759 106.691 664.206 106.248C663.597 105.861 662.988 105.584 662.379 105.418C661.771 105.197 661.107 105.086 660.387 105.086C656.735 105.086 653.083 105.086 649.43 105.086C645.778 105.086 642.125 105.086 638.473 105.086C636.536 105.086 634.738 104.782 633.078 104.173C631.417 103.564 629.868 102.623 628.429 101.351C626.935 100.078 625.773 98.6667 624.943 97.1172C624.113 95.5677 623.559 93.8245 623.283 91.8877C623.227 91.7217 623.2 91.5557 623.2 91.3896C623.2 91.2236 623.172 91.0299 623.117 90.8086C623.117 90.6426 623.117 90.4766 623.117 90.3105C623.117 90.1445 623.117 89.9508 623.117 89.7295C623.117 87.6266 623.476 85.6621 624.196 83.8359C624.971 82.0098 626.105 80.3496 627.599 78.8555C629.093 77.3613 630.753 76.2546 632.58 75.5352C634.35 74.7604 636.315 74.373 638.473 74.373C644.671 74.373 650.869 74.373 657.067 74.373C663.265 74.373 669.49 74.373 675.744 74.373C675.744 76.3099 675.744 79.2428 675.744 83.1719C667.443 83.1719 655.019 83.1719 638.473 83.1719C637.532 83.1719 636.675 83.3379 635.9 83.6699C635.125 83.9466 634.433 84.417 633.825 85.0811C633.161 85.7451 632.663 86.4645 632.331 87.2393C631.999 88.014 631.833 88.8441 631.833 89.7295C631.833 90.6702 631.999 91.528 632.331 92.3027C632.663 93.0775 633.161 93.7692 633.825 94.3779Z" fill="black"/>
<path d="M606.06 74.373C608.052 74.373 610.985 74.373 614.859 74.373C614.859 86.1048 614.859 103.647 614.859 127C612.922 127 609.989 127 606.06 127C601.688 123.126 595.131 117.288 586.387 109.485C585.889 109.043 585.142 108.379 584.146 107.493C583.703 107.936 582.984 108.6 581.988 109.485C577.616 113.359 571.031 119.197 562.232 127C560.295 127 557.39 127 553.516 127C553.516 115.324 553.516 97.7812 553.516 74.373C555.453 74.373 558.358 74.373 562.232 74.373C562.232 83.4486 562.232 97.0895 562.232 115.296C566.161 111.81 572.027 106.608 579.83 99.6904C579.83 97.9749 579.83 95.4017 579.83 91.9707C581.766 91.9707 584.672 91.9707 588.545 91.9707C588.545 93.6862 588.545 96.2594 588.545 99.6904C592.474 103.177 598.313 108.379 606.06 115.296C606.06 106.22 606.06 92.5794 606.06 74.373Z" fill="black"/>
<path d="M544.844 83.1719C535.104 83.1719 520.467 83.1719 500.933 83.1719C500.933 86.1048 500.933 90.5042 500.933 96.3701C506.798 96.3701 515.57 96.3701 527.246 96.3701C527.246 98.307 527.246 101.24 527.246 105.169C521.38 105.169 512.609 105.169 500.933 105.169C500.933 108.102 500.933 112.474 500.933 118.284C510.672 118.284 525.309 118.284 544.844 118.284C544.844 120.276 544.844 123.209 544.844 127.083C533.112 127.083 515.542 127.083 492.134 127.083C492.134 115.407 492.134 97.8366 492.134 74.373C503.866 74.373 521.436 74.373 544.844 74.373C544.844 76.3652 544.844 79.2982 544.844 83.1719Z" fill="black"/>
<path d="M474.828 74.373C476.765 74.373 479.698 74.373 483.627 74.373C483.627 86.0495 483.627 103.564 483.627 126.917C481.69 126.917 478.757 126.917 474.828 126.917C467.025 118.174 455.349 105.058 439.799 87.5713C439.799 96.3148 439.799 109.43 439.799 126.917C437.862 126.917 434.929 126.917 431 126.917C431 115.241 431 97.7259 431 74.373C432.992 74.373 435.925 74.373 439.799 74.373C447.602 83.1165 459.278 96.2594 474.828 113.802C474.828 105.003 474.828 91.86 474.828 74.373Z" fill="black"/>
<rect x="2.5" y="2.5" width="738" height="192" stroke="black" stroke-width="5"/>
</svg>
