<svg width="548" height="53" viewBox="0 0 548 53" fill="none" xmlns="http://www.w3.org/2000/svg">
<path d="M271.977 0C271.977 5.36784 271.977 13.3919 271.977 24.0723C271.977 25.1237 271.977 26.6455 271.977 28.6377C271.977 34.0055 271.977 42.0296 271.977 52.71C270.98 52.71 269.486 52.71 267.494 52.71C267.494 47.3421 267.494 39.318 267.494 28.6377C257.755 28.6377 243.201 28.6377 223.832 28.6377C223.832 34.0055 223.832 42.0296 223.832 52.71C222.836 52.71 221.342 52.71 219.35 52.71C219.35 40.9782 219.35 23.4082 219.35 0C220.346 0 221.84 0 223.832 0C223.832 5.36784 223.832 13.3919 223.832 24.0723C233.516 24.0723 248.07 24.0723 267.494 24.0723C267.494 18.7598 267.494 10.7357 267.494 0C268.49 0 269.984 0 271.977 0Z" fill="black"/>
<path d="M163.831 1.49414C164.55 1.27279 165.27 1.05143 165.989 0.830078C166.653 0.664062 167.373 0.525716 168.147 0.415039C168.922 0.249023 169.642 0.138346 170.306 0.0830078C171.025 0.0276693 171.772 0 172.547 0C178.357 0 187.046 0 198.611 0C198.611 0.996094 198.611 2.5179 198.611 4.56543C194.24 4.56543 189.896 4.56543 185.579 4.56543C181.263 4.56543 176.919 4.56543 172.547 4.56543C171.163 4.56543 169.863 4.67611 168.646 4.89746C167.428 5.11882 166.155 5.47852 164.827 5.97656C163.554 6.47461 162.365 7.02799 161.258 7.63672C160.206 8.30078 159.155 9.10319 158.104 10.0439C157.993 10.21 157.854 10.3483 157.688 10.459C157.578 10.5697 157.439 10.708 157.273 10.874C157.107 11.04 156.969 11.1784 156.858 11.2891C156.692 11.4551 156.554 11.6211 156.443 11.7871C154.562 13.8346 153.178 16.0758 152.293 18.5107C151.352 20.8903 150.882 23.4912 150.882 26.3135C150.882 29.0804 151.352 31.6813 152.293 34.1162C153.178 36.4958 154.562 38.737 156.443 40.8398C156.554 41.0059 156.692 41.1442 156.858 41.2549C156.969 41.4209 157.107 41.5592 157.273 41.6699C157.439 41.8359 157.578 41.9743 157.688 42.085C157.854 42.251 157.993 42.3893 158.104 42.5C159.155 43.4408 160.206 44.2432 161.258 44.9072C162.365 45.5713 163.554 46.1523 164.827 46.6504C166.155 47.1484 167.428 47.5081 168.646 47.7295C169.863 47.9508 171.163 48.0615 172.547 48.0615C178.357 48.0615 187.046 48.0615 198.611 48.0615C198.611 49.0576 198.611 50.5518 198.611 52.5439C194.24 52.5439 189.896 52.5439 185.579 52.5439C181.263 52.5439 176.919 52.5439 172.547 52.5439C170.887 52.5439 169.31 52.4056 167.815 52.1289C166.321 51.8522 164.799 51.4372 163.25 50.8838C161.645 50.2751 160.206 49.5557 158.934 48.7256C157.661 47.9508 156.388 47.0101 155.115 45.9033C154.949 45.7373 154.783 45.5713 154.617 45.4053C154.451 45.2393 154.257 45.0732 154.036 44.9072C153.87 44.6859 153.704 44.4922 153.538 44.3262C153.372 44.1602 153.206 43.9941 153.04 43.8281C150.826 41.2826 149.166 38.571 148.06 35.6934C146.953 32.8158 146.399 29.6891 146.399 26.3135C146.399 22.9378 146.953 19.8112 148.06 16.9336C149.166 14.0007 150.826 11.2891 153.04 8.79883C153.206 8.57747 153.372 8.38379 153.538 8.21777C153.704 8.05176 153.87 7.88574 154.036 7.71973C154.202 7.55371 154.396 7.3877 154.617 7.22168C154.783 7.05566 154.949 6.88965 155.115 6.72363C155.779 6.11491 156.443 5.56152 157.107 5.06348C157.716 4.62077 158.408 4.15039 159.183 3.65234C159.957 3.20964 160.732 2.82227 161.507 2.49023C162.226 2.1582 163.001 1.82617 163.831 1.49414Z" fill="black"/>
<path d="M73.1167 24.0723C73.1167 18.7598 73.1167 10.7357 73.1167 0C84.8485 0 102.418 0 125.827 0C125.827 1.05143 125.827 2.57324 125.827 4.56543C115.091 4.56543 99.0428 4.56543 77.6821 4.56543C77.6821 8.88184 77.6821 15.3841 77.6821 24.0723C84.4888 24.0723 94.6711 24.0723 108.229 24.0723C108.229 25.1237 108.229 26.6455 108.229 28.6377C101.422 28.6377 91.2401 28.6377 77.6821 28.6377C77.6821 32.9541 77.6821 39.4564 77.6821 48.1445C88.3625 48.1445 104.411 48.1445 125.827 48.1445C125.827 49.196 125.827 50.7178 125.827 52.71C114.095 52.71 96.5249 52.71 73.1167 52.71C73.1167 47.3421 73.1167 39.318 73.1167 28.6377C73.1167 27.6416 73.1167 26.1198 73.1167 24.0723Z" fill="black"/>
<path d="M0 4.56543C0 3.56934 0 2.0752 0 0.0830078C11.6764 0.0830078 29.1911 0.0830078 52.5439 0.0830078C52.5439 1.0791 52.5439 2.57324 52.5439 4.56543C47.2314 4.56543 39.235 4.56543 28.5547 4.56543C28.5547 15.2458 28.5547 31.2663 28.5547 52.627C27.5586 52.627 26.0368 52.627 23.9893 52.627C23.9893 41.9466 23.9893 25.9261 23.9893 4.56543C18.6768 4.56543 10.6803 4.56543 0 4.56543Z" fill="black"/>
<path d="M505.825 20.0879C506.433 20.752 507.125 21.25 507.9 21.582C508.675 21.8587 509.532 21.9971 510.473 21.9971C514.125 21.9971 517.778 21.9971 521.43 21.9971C525.083 21.9971 528.735 21.9971 532.387 21.9971C533.439 21.9971 534.407 22.1077 535.292 22.3291C536.233 22.4951 537.202 22.7718 538.198 23.1592C539.139 23.5465 539.996 24.0169 540.771 24.5703C541.601 25.0684 542.376 25.6771 543.095 26.3965C543.427 26.7285 543.732 27.0605 544.008 27.3926C544.285 27.7246 544.562 28.0843 544.838 28.4717C545.115 28.859 545.364 29.2464 545.585 29.6338C545.807 29.9658 546.028 30.3532 546.25 30.7959C546.416 31.1833 546.554 31.543 546.665 31.875C546.831 32.207 546.969 32.5667 547.08 32.9541C547.19 33.3415 547.273 33.7012 547.329 34.0332C547.439 34.4206 547.522 34.8079 547.578 35.1953C547.578 35.3613 547.578 35.5273 547.578 35.6934C547.633 35.8594 547.661 36.0531 547.661 36.2744C547.661 36.4404 547.661 36.6341 547.661 36.8555C547.716 37.0215 547.744 37.1875 547.744 37.3535C547.744 39.4564 547.356 41.4209 546.582 43.2471C545.862 45.0732 544.728 46.7334 543.178 48.2275C541.684 49.7217 540.052 50.8561 538.281 51.6309C536.455 52.3503 534.49 52.71 532.387 52.71C526.134 52.71 519.908 52.71 513.71 52.71C507.513 52.71 501.315 52.71 495.117 52.71C495.117 50.7731 495.117 47.8402 495.117 43.9111C503.362 43.9111 515.786 43.9111 532.387 43.9111C533.273 43.9111 534.103 43.7728 534.877 43.4961C535.652 43.1641 536.372 42.666 537.036 42.002C537.644 41.3932 538.115 40.7015 538.447 39.9268C538.779 39.152 538.945 38.2943 538.945 37.3535C538.945 37.1875 538.945 36.9938 538.945 36.7725C538.889 36.6064 538.862 36.4404 538.862 36.2744C538.806 36.0531 538.751 35.8594 538.696 35.6934C538.696 35.5273 538.64 35.3613 538.53 35.1953C538.308 34.5312 538.004 33.9225 537.617 33.3691C537.229 32.8711 536.759 32.4007 536.206 31.958C535.597 31.5706 534.988 31.2939 534.379 31.1279C533.771 30.9066 533.107 30.7959 532.387 30.7959C528.735 30.7959 525.083 30.7959 521.43 30.7959C517.778 30.7959 514.125 30.7959 510.473 30.7959C508.536 30.7959 506.738 30.4915 505.078 29.8828C503.417 29.2741 501.868 28.3333 500.429 27.0605C498.935 25.7878 497.773 24.3766 496.943 22.8271C496.113 21.2777 495.559 19.5345 495.283 17.5977C495.227 17.4316 495.2 17.2656 495.2 17.0996C495.2 16.9336 495.172 16.7399 495.117 16.5186C495.117 16.3525 495.117 16.1865 495.117 16.0205C495.117 15.8545 495.117 15.6608 495.117 15.4395C495.117 13.3366 495.476 11.3721 496.196 9.5459C496.971 7.71973 498.105 6.05957 499.599 4.56543C501.093 3.07129 502.753 1.96452 504.58 1.24512C506.35 0.470378 508.315 0.0830078 510.473 0.0830078C516.671 0.0830078 522.869 0.0830078 529.067 0.0830078C535.265 0.0830078 541.49 0.0830078 547.744 0.0830078C547.744 2.01986 547.744 4.9528 547.744 8.88184C539.443 8.88184 527.019 8.88184 510.473 8.88184C509.532 8.88184 508.675 9.04785 507.9 9.37988C507.125 9.65658 506.433 10.127 505.825 10.791C505.161 11.4551 504.663 12.1745 504.331 12.9492C503.999 13.724 503.833 14.554 503.833 15.4395C503.833 16.3802 503.999 17.238 504.331 18.0127C504.663 18.7874 505.161 19.4792 505.825 20.0879Z" fill="black"/>
<path d="M478.06 0.0830078C480.052 0.0830078 482.985 0.0830078 486.859 0.0830078C486.859 11.8148 486.859 29.3571 486.859 52.71C484.922 52.71 481.989 52.71 478.06 52.71C473.688 48.8363 467.131 42.998 458.387 35.1953C457.889 34.7526 457.142 34.0885 456.146 33.2031C455.703 33.6458 454.984 34.3099 453.988 35.1953C449.616 39.069 443.031 44.9072 434.232 52.71C432.295 52.71 429.39 52.71 425.516 52.71C425.516 41.0335 425.516 23.4912 425.516 0.0830078C427.453 0.0830078 430.358 0.0830078 434.232 0.0830078C434.232 9.15853 434.232 22.7995 434.232 41.0059C438.161 37.5195 444.027 32.3177 451.83 25.4004C451.83 23.6849 451.83 21.1117 451.83 17.6807C453.766 17.6807 456.672 17.6807 460.545 17.6807C460.545 19.3962 460.545 21.9694 460.545 25.4004C464.474 28.8867 470.313 34.0885 478.06 41.0059C478.06 31.9303 478.06 18.2894 478.06 0.0830078Z" fill="black"/>
<path d="M416.844 8.88184C407.104 8.88184 392.467 8.88184 372.933 8.88184C372.933 11.8148 372.933 16.2142 372.933 22.0801C378.798 22.0801 387.57 22.0801 399.246 22.0801C399.246 24.0169 399.246 26.9499 399.246 30.8789C393.38 30.8789 384.609 30.8789 372.933 30.8789C372.933 33.8118 372.933 38.1836 372.933 43.9941C382.672 43.9941 397.309 43.9941 416.844 43.9941C416.844 45.9863 416.844 48.9193 416.844 52.793C405.112 52.793 387.542 52.793 364.134 52.793C364.134 41.1165 364.134 23.5465 364.134 0.0830078C375.866 0.0830078 393.436 0.0830078 416.844 0.0830078C416.844 2.0752 416.844 5.00814 416.844 8.88184Z" fill="black"/>
<path d="M346.828 0.0830078C348.765 0.0830078 351.698 0.0830078 355.627 0.0830078C355.627 11.7594 355.627 29.2741 355.627 52.627C353.69 52.627 350.757 52.627 346.828 52.627C339.025 43.8835 327.349 30.7682 311.799 13.2812C311.799 22.0247 311.799 35.14 311.799 52.627C309.862 52.627 306.929 52.627 303 52.627C303 40.9505 303 23.4359 303 0.0830078C304.992 0.0830078 307.925 0.0830078 311.799 0.0830078C319.602 8.8265 331.278 21.9694 346.828 39.5117C346.828 30.7129 346.828 17.57 346.828 0.0830078Z" fill="black"/>
</svg>
