<svg width="649" height="79" viewBox="0 0 649 79" fill="none" xmlns="http://www.w3.org/2000/svg">
<path d="M372.899 15.29C372.899 20.6579 372.899 28.682 372.899 39.3623C372.899 40.4137 372.899 41.9355 372.899 43.9277C372.899 49.2956 372.899 57.3197 372.899 68C371.903 68 370.409 68 368.417 68C368.417 62.6322 368.417 54.6081 368.417 43.9277C358.677 43.9277 344.123 43.9277 324.755 43.9277C324.755 49.2956 324.755 57.3197 324.755 68C323.759 68 322.265 68 320.272 68C320.272 56.2682 320.272 38.6982 320.272 15.29C321.269 15.29 322.763 15.29 324.755 15.29C324.755 20.6579 324.755 28.682 324.755 39.3623C334.439 39.3623 348.993 39.3623 368.417 39.3623C368.417 34.0498 368.417 26.0257 368.417 15.29C369.413 15.29 370.907 15.29 372.899 15.29Z" fill="#FFFFFF"/>
<path d="M264.754 16.7842C265.473 16.5628 266.193 16.3415 266.912 16.1201C267.576 15.9541 268.296 15.8158 269.07 15.7051C269.845 15.5391 270.564 15.4284 271.229 15.373C271.948 15.3177 272.695 15.29 273.47 15.29C279.28 15.29 287.968 15.29 299.534 15.29C299.534 16.2861 299.534 17.8079 299.534 19.8555C295.162 19.8555 290.818 19.8555 286.502 19.8555C282.186 19.8555 277.841 19.8555 273.47 19.8555C272.086 19.8555 270.786 19.9661 269.568 20.1875C268.351 20.4089 267.078 20.7686 265.75 21.2666C264.477 21.7646 263.287 22.318 262.181 22.9268C261.129 23.5908 260.078 24.3932 259.026 25.334C258.916 25.5 258.777 25.6383 258.611 25.749C258.501 25.8597 258.362 25.998 258.196 26.1641C258.03 26.3301 257.892 26.4684 257.781 26.5791C257.615 26.7451 257.477 26.9111 257.366 27.0771C255.485 29.1247 254.101 31.3659 253.216 33.8008C252.275 36.1803 251.805 38.7812 251.805 41.6035C251.805 44.3704 252.275 46.9714 253.216 49.4062C254.101 51.7858 255.485 54.027 257.366 56.1299C257.477 56.2959 257.615 56.4342 257.781 56.5449C257.892 56.7109 258.03 56.8493 258.196 56.96C258.362 57.126 258.501 57.2643 258.611 57.375C258.777 57.541 258.916 57.6794 259.026 57.79C260.078 58.7308 261.129 59.5332 262.181 60.1973C263.287 60.8613 264.477 61.4424 265.75 61.9404C267.078 62.4385 268.351 62.7982 269.568 63.0195C270.786 63.2409 272.086 63.3516 273.47 63.3516C279.28 63.3516 287.968 63.3516 299.534 63.3516C299.534 64.3477 299.534 65.8418 299.534 67.834C295.162 67.834 290.818 67.834 286.502 67.834C282.186 67.834 277.841 67.834 273.47 67.834C271.81 67.834 270.232 67.6956 268.738 67.4189C267.244 67.1423 265.722 66.7272 264.173 66.1738C262.568 65.5651 261.129 64.8457 259.856 64.0156C258.584 63.2409 257.311 62.3001 256.038 61.1934C255.872 61.0273 255.706 60.8613 255.54 60.6953C255.374 60.5293 255.18 60.3633 254.959 60.1973C254.793 59.9759 254.627 59.7822 254.461 59.6162C254.295 59.4502 254.129 59.2842 253.963 59.1182C251.749 56.5726 250.089 53.861 248.982 50.9834C247.876 48.1058 247.322 44.9792 247.322 41.6035C247.322 38.2279 247.876 35.1012 248.982 32.2236C250.089 29.2907 251.749 26.5791 253.963 24.0889C254.129 23.8675 254.295 23.6738 254.461 23.5078C254.627 23.3418 254.793 23.1758 254.959 23.0098C255.125 22.8438 255.319 22.6777 255.54 22.5117C255.706 22.3457 255.872 22.1797 256.038 22.0137C256.702 21.4049 257.366 20.8516 258.03 20.3535C258.639 19.9108 259.331 19.4404 260.105 18.9424C260.88 18.4997 261.655 18.1123 262.43 17.7803C263.149 17.4482 263.924 17.1162 264.754 16.7842Z" fill="#FFFFFF"/>
<path d="M174.04 39.3623C174.04 34.0498 174.04 26.0257 174.04 15.29C185.771 15.29 203.341 15.29 226.75 15.29C226.75 16.3415 226.75 17.8633 226.75 19.8555C216.014 19.8555 199.966 19.8555 178.605 19.8555C178.605 24.1719 178.605 30.6742 178.605 39.3623C185.412 39.3623 195.594 39.3623 209.152 39.3623C209.152 40.4137 209.152 41.9355 209.152 43.9277C202.345 43.9277 192.163 43.9277 178.605 43.9277C178.605 48.2441 178.605 54.7464 178.605 63.4346C189.285 63.4346 205.333 63.4346 226.75 63.4346C226.75 64.486 226.75 66.0078 226.75 68C215.018 68 197.448 68 174.04 68C174.04 62.6322 174.04 54.6081 174.04 43.9277C174.04 42.9316 174.04 41.4098 174.04 39.3623Z" fill="#FFFFFF"/>
<path d="M100.923 19.8555C100.923 18.8594 100.923 17.3652 100.923 15.373C112.599 15.373 130.114 15.373 153.467 15.373C153.467 16.3691 153.467 17.8633 153.467 19.8555C148.154 19.8555 140.158 19.8555 129.478 19.8555C129.478 30.5358 129.478 46.5563 129.478 67.917C128.481 67.917 126.96 67.917 124.912 67.917C124.912 57.2367 124.912 41.2161 124.912 19.8555C119.6 19.8555 111.603 19.8555 100.923 19.8555Z" fill="#FFFFFF"/>
<path d="M606.748 35.3779C607.356 36.042 608.048 36.54 608.823 36.8721C609.597 37.1488 610.455 37.2871 611.396 37.2871C615.048 37.2871 618.701 37.2871 622.353 37.2871C626.005 37.2871 629.658 37.2871 633.31 37.2871C634.361 37.2871 635.33 37.3978 636.215 37.6191C637.156 37.7852 638.125 38.0618 639.121 38.4492C640.061 38.8366 640.919 39.307 641.694 39.8604C642.524 40.3584 643.299 40.9671 644.018 41.6865C644.35 42.0186 644.654 42.3506 644.931 42.6826C645.208 43.0146 645.485 43.3743 645.761 43.7617C646.038 44.1491 646.287 44.5365 646.508 44.9238C646.73 45.2559 646.951 45.6432 647.172 46.0859C647.338 46.4733 647.477 46.833 647.587 47.165C647.753 47.4971 647.892 47.8568 648.002 48.2441C648.113 48.6315 648.196 48.9912 648.251 49.3232C648.362 49.7106 648.445 50.098 648.5 50.4854C648.5 50.6514 648.5 50.8174 648.5 50.9834C648.556 51.1494 648.583 51.3431 648.583 51.5645C648.583 51.7305 648.583 51.9242 648.583 52.1455C648.639 52.3115 648.667 52.4775 648.667 52.6436C648.667 54.7464 648.279 56.7109 647.504 58.5371C646.785 60.3633 645.651 62.0234 644.101 63.5176C642.607 65.0117 640.974 66.1462 639.204 66.9209C637.377 67.6403 635.413 68 633.31 68C627.057 68 620.831 68 614.633 68C608.435 68 602.237 68 596.04 68C596.04 66.0632 596.04 63.1302 596.04 59.2012C604.285 59.2012 616.708 59.2012 633.31 59.2012C634.195 59.2012 635.026 59.0628 635.8 58.7861C636.575 58.4541 637.294 57.9561 637.958 57.292C638.567 56.6833 639.038 55.9915 639.37 55.2168C639.702 54.4421 639.868 53.5843 639.868 52.6436C639.868 52.4775 639.868 52.2839 639.868 52.0625C639.812 51.8965 639.785 51.7305 639.785 51.5645C639.729 51.3431 639.674 51.1494 639.619 50.9834C639.619 50.8174 639.563 50.6514 639.453 50.4854C639.231 49.8213 638.927 49.2126 638.54 48.6592C638.152 48.1611 637.682 47.6908 637.128 47.248C636.52 46.8607 635.911 46.584 635.302 46.418C634.694 46.1966 634.029 46.0859 633.31 46.0859C629.658 46.0859 626.005 46.0859 622.353 46.0859C618.701 46.0859 615.048 46.0859 611.396 46.0859C609.459 46.0859 607.661 45.7816 606 45.1729C604.34 44.5641 602.791 43.6234 601.352 42.3506C599.858 41.0778 598.696 39.6667 597.866 38.1172C597.036 36.5677 596.482 34.8245 596.206 32.8877C596.15 32.7217 596.123 32.5557 596.123 32.3896C596.123 32.2236 596.095 32.0299 596.04 31.8086C596.04 31.6426 596.04 31.4766 596.04 31.3105C596.04 31.1445 596.04 30.9508 596.04 30.7295C596.04 28.6266 596.399 26.6621 597.119 24.8359C597.893 23.0098 599.028 21.3496 600.522 19.8555C602.016 18.3613 603.676 17.2546 605.502 16.5352C607.273 15.7604 609.238 15.373 611.396 15.373C617.594 15.373 623.792 15.373 629.99 15.373C636.188 15.373 642.413 15.373 648.667 15.373C648.667 17.3099 648.667 20.2428 648.667 24.1719C640.366 24.1719 627.942 24.1719 611.396 24.1719C610.455 24.1719 609.597 24.3379 608.823 24.6699C608.048 24.9466 607.356 25.417 606.748 26.0811C606.083 26.7451 605.585 27.4645 605.253 28.2393C604.921 29.014 604.755 29.8441 604.755 30.7295C604.755 31.6702 604.921 32.528 605.253 33.3027C605.585 34.0775 606.083 34.7692 606.748 35.3779Z" fill="#FFFFFF"/>
<path d="M578.983 15.373C580.975 15.373 583.908 15.373 587.782 15.373C587.782 27.1048 587.782 44.6471 587.782 68C585.845 68 582.912 68 578.983 68C574.611 64.1263 568.054 58.2881 559.31 50.4854C558.812 50.0426 558.065 49.3786 557.069 48.4932C556.626 48.9359 555.907 49.5999 554.911 50.4854C550.539 54.359 543.954 60.1973 535.155 68C533.218 68 530.313 68 526.439 68C526.439 56.3236 526.439 38.7812 526.439 15.373C528.376 15.373 531.281 15.373 535.155 15.373C535.155 24.4486 535.155 38.0895 535.155 56.2959C539.084 52.8096 544.95 47.6077 552.752 40.6904C552.752 38.9749 552.752 36.4017 552.752 32.9707C554.689 32.9707 557.595 32.9707 561.468 32.9707C561.468 34.6862 561.468 37.2594 561.468 40.6904C565.397 44.1768 571.236 49.3786 578.983 56.2959C578.983 47.2204 578.983 33.5794 578.983 15.373Z" fill="#FFFFFF"/>
<path d="M517.767 24.1719C508.027 24.1719 493.39 24.1719 473.855 24.1719C473.855 27.1048 473.855 31.5042 473.855 37.3701C479.721 37.3701 488.493 37.3701 500.169 37.3701C500.169 39.307 500.169 42.2399 500.169 46.1689C494.303 46.1689 485.532 46.1689 473.855 46.1689C473.855 49.1019 473.855 53.4736 473.855 59.2842C483.595 59.2842 498.232 59.2842 517.767 59.2842C517.767 61.2764 517.767 64.2093 517.767 68.083C506.035 68.083 488.465 68.083 465.057 68.083C465.057 56.4066 465.057 38.8366 465.057 15.373C476.788 15.373 494.358 15.373 517.767 15.373C517.767 17.3652 517.767 20.2982 517.767 24.1719Z" fill="#FFFFFF"/>
<path d="M447.751 15.373C449.688 15.373 452.621 15.373 456.55 15.373C456.55 27.0495 456.55 44.5641 456.55 67.917C454.613 67.917 451.68 67.917 447.751 67.917C439.948 59.1735 428.272 46.0583 412.722 28.5713C412.722 37.3148 412.722 50.43 412.722 67.917C410.785 67.917 407.852 67.917 403.923 67.917C403.923 56.2406 403.923 38.7259 403.923 15.373C405.915 15.373 408.848 15.373 412.722 15.373C420.524 24.1165 432.201 37.2594 447.751 54.8018C447.751 46.0029 447.751 32.86 447.751 15.373Z" fill="#FFFFFF"/>
<path fill-rule="evenodd" clip-rule="evenodd" d="M19.75 73.0167C23.3994 66.0371 25.8269 53.6357 25.8269 39.5C25.8269 25.3643 23.3994 12.9629 19.75 5.98333C21.7326 2.19154 24.0759 0 26.5865 0C29.0972 0 31.4404 2.19154 33.4231 5.98334C29.7736 12.9629 27.3461 25.3643 27.3461 39.5C27.3461 53.6357 29.7736 66.0371 33.4231 73.0167C31.4404 76.8085 29.0972 79 26.5865 79C24.0759 79 21.7326 76.8085 19.75 73.0167ZM47.0962 73.0167C45.1135 76.8085 42.7702 79 40.2596 79C37.749 79 35.4057 76.8085 33.4231 73.0167C37.0725 66.0371 39.5 53.6357 39.5 39.5C39.5 25.3643 37.0725 12.9629 33.4231 5.98334C35.4057 2.19154 37.749 0 40.2596 0C42.7702 0 45.1135 2.19154 47.0962 5.98334C43.4467 12.9629 41.0192 25.3643 41.0192 39.5C41.0192 53.6357 43.4467 66.0371 47.0962 73.0167ZM47.0962 73.0167C50.7456 66.0371 53.1731 53.6357 53.1731 39.5C53.1731 25.3643 50.7456 12.9629 47.0962 5.98334C49.0788 2.19154 51.4221 0 53.9327 0C61.0646 0 66.8462 17.6848 66.8462 39.5C66.8462 61.3152 61.0646 79 53.9327 79C51.4221 79 49.0788 76.8085 47.0962 73.0167ZM19.75 73.0167C17.7674 76.8085 15.4241 79 12.9135 79C5.78155 79 0 61.3152 0 39.5C0 17.6848 5.78155 0 12.9135 0C15.4241 0 17.7674 2.19154 19.75 5.98333C16.1006 12.9629 13.6731 25.3643 13.6731 39.5C13.6731 53.6357 16.1006 66.0371 19.75 73.0167Z" fill="#FFFFFF"/>
</svg>
