<svg width="117" height="138" viewBox="0 0 117 138" fill="none" xmlns="http://www.w3.org/2000/svg">
<path fill-rule="evenodd" clip-rule="evenodd" d="M34.5 127.548C40.8749 115.356 45.1154 93.6928 45.1154 69C45.1154 44.3072 40.8749 22.644 34.5 10.4519C37.9633 3.82826 42.0567 0 46.4423 0C50.8279 0 54.9213 3.82826 58.3846 10.4519C52.0097 22.644 47.7692 44.3073 47.7692 69C47.7692 93.6927 52.0097 115.356 58.3846 127.548C54.9213 134.172 50.8279 138 46.4423 138C42.0567 138 37.9633 134.172 34.5 127.548ZM82.2692 127.548C78.8059 134.172 74.7126 138 70.3269 138C65.9413 138 61.8479 134.172 58.3846 127.548C64.7596 115.356 69 93.6927 69 69C69 44.3073 64.7596 22.644 58.3846 10.4519C61.8479 3.82826 65.9413 0 70.3269 0C74.7126 0 78.8059 3.82826 82.2692 10.4519C75.8943 22.644 71.6538 44.3073 71.6538 69C71.6538 93.6927 75.8943 115.356 82.2692 127.548ZM82.2692 127.548C88.6442 115.356 92.8846 93.6927 92.8846 69C92.8846 44.3073 88.6442 22.644 82.2692 10.4519C85.7326 3.82826 89.8259 0 94.2115 0C106.67 0 116.769 30.8924 116.769 69C116.769 107.108 106.67 138 94.2115 138C89.8259 138 85.7326 134.172 82.2692 127.548ZM34.5 127.548C31.0367 134.172 26.9433 138 22.5577 138C10.0994 138 0 107.108 0 69C0 30.8924 10.0994 0 22.5577 0C26.9433 0 31.0367 3.82826 34.5 10.4519C28.125 22.644 23.8846 44.3072 23.8846 69C23.8846 93.6928 28.125 115.356 34.5 127.548Z" fill="black"/>
</svg>
